PathFileType	4	(X/Y/Z)	C:/Users/opensim2020/Desktop/walking_exp_matlab/subject03_walking07_straight_02.trc																																																																																																																																								
DataRate	CameraRate	NumFrames	NumMarkers	Units	OrigDataRate	OrigDataStartFrame	OrigNumFrames																																																																																																																																				
100	100	6	46	mm	100	1530	252																																																																																																																																				
Frame#	Time	LFHD			RFHD			LBHD			RBHD			C7			T10			CLAV			STRN			RBAK			LSHO			LUPA			LELB			LFRM			LWRA			LWRB			LFIN			RSHO			RUPA			RELB			RFRM			RWRA			RWRB			RFIN			LASI			RASI			LPSI			RPSI			LTHI			LKNE			LTIB			LANK			LHEE			LTOE			RTHI			RKNE			RTIB			RANK			RHEE			RTOE			*39			*40			*41			*42			*43			*44			*45		
		X1	Y1	Z1	X2	Y2	Z2	X3	Y3	Z3	X4	Y4	Z4	X5	Y5	Z5	X6	Y6	Z6	X7	Y7	Z7	X8	Y8	Z8	X9	Y9	Z9	X10	Y10	Z10	X11	Y11	Z11	X12	Y12	Z12	X13	Y13	Z13	X14	Y14	Z14	X15	Y15	Z15	X16	Y16	Z16	X17	Y17	Z17	X18	Y18	Z18	X19	Y19	Z19	X20	Y20	Z20	X21	Y21	Z21	X22	Y22	Z22	X23	Y23	Z23	X24	Y24	Z24	X25	Y25	Z25	X26	Y26	Z26	X27	Y27	Z27	X28	Y28	Z28	X29	Y29	Z29	X30	Y30	Z30	X31	Y31	Z31	X32	Y32	Z32	X33	Y33	Z33	X34	Y34	Z34	X35	Y35	Z35	X36	Y36	Z36	X37	Y37	Z37	X38	Y38	Z38	X39	Y39	Z39	X40	Y40	Z40	X41	Y41	Z41	X42	Y42	Z42	X43	Y43	Z43	X44	Y44	Z44	X45	Y45	Z45	X46	Y46	Z46
																																																																																																																																											
64	0.63	-501.20874	1612.18713	953.88135	-511.42865	1619.53406	1086.24817	-632.56311	1578.58691	949.00208	-637.4762	1585.0387	1079.81433	-674.91821	1417.87561	1012.4425	-711.49878	1103.12512	1016.90973	-555.69324	1338.53345	1015.39514	-513.2901	1173.57263	1008.82288	-730.81433	1241.3844	1110.85291	-595.89514	1374.45251	859.42725	-584.15851	1177.80994	792.48834	-561.7063	1056.18176	784.96124	-515.51239	933.93408	789.48041	-477.3201	822.09857	823.75635	-501.44626	821.54456	772.85846	-473.11639	742.01465	786.01086	-600.3573	1362.65723	1173.99805	-604.55426	1139.86377	1247.40723	-593.18988	1027.7052	1261.93408	-581.06757	891.2749	1264.93518	-554.52142	793.96313	1231.19421	-585.87604	790.79742	1275.06885	-569.07349	716.96478	1262.59131	-549.48798	935.50751	895.25848	-537.45453	944.45172	1134.30322	-708.93854	953.96973	953.10803	-700.85522	971.23871	1101.10547	-580.36011	631.75226	844.0434	-552.52002	453.99289	859.63147	-707.58698	332.30386	870.19873	-857.78168	193.1498	918.12537	-905.09521	199.16702	963.14185	-794.49188	57.62397	923.97101	-577.64307	650.04059	1174.13782	-548.59778	471.33438	1135.93689	-581.44769	283.061	1135.64172	-590.73529	67.98912	1082.03418	-632.33972	35.64777	1030.10608	-446.8623	31.52292	1067.22998	NaN	NaN	NaN	-580.87286	1684.5177	996.08344	NaN	NaN	NaN	NaN	NaN	NaN	NaN	NaN	NaN	NaN	NaN	NaN	NaN	NaN	NaN
65	0.64	-491.45358	1612.33105	954.18896	-501.33334	1619.63928	1086.6051	-622.82281	1578.94067	949.5899	-627.49939	1585.36499	1080.40662	-665.32813	1418.27039	1013.07855	-702.4527	1103.66064	1017.81927	-546.37115	1338.70581	1015.73804	-504.13068	1173.79993	1009.31702	-721.64886	1242.01465	1111.66296	-587.13751	1374.29663	859.59277	-577.20221	1177.11584	792.92371	-555.56464	1055.28162	785.3338	-511.64304	932.15094	789.37006	-475.83508	819.39044	823.00555	-499.86322	819.54449	772.07446	-473.35287	739.40656	784.89862	-590.47809	1362.69983	1174.4751	-591.82867	1139.98193	1248.13196	-579.05676	1028.09119	1262.88904	-565.68774	891.70807	1266.25549	-538.81793	794.6712	1232.46594	-569.39502	791.29779	1276.82776	-551.52148	717.90991	1264.64294	-539.35956	936.75104	896.02374	-528.84857	944.8056	1135.30823	-699.84601	954.19873	953.33417	-692.1828	971.58392	1101.43469	-565.11993	633.13928	844.74908	-533.61499	455.98663	859.98401	-686.86218	332.73117	870.34302	-835.5127	191.47223	917.38104	-883.85931	196.14499	961.88483	-768.31348	58.09926	924.11926	-570.28125	650.02936	1173.8927	-543.70947	470.97543	1135.77747	-578.84888	283.06516	1135.59912	-590.55078	68.10541	1081.83386	-632.3028	35.81746	1029.94849	-446.7847	31.48932	1067.13586	NaN	NaN	NaN	-569.9881	1684.33398	995.41022	NaN	NaN	NaN	NaN	NaN	NaN	NaN	NaN	NaN	NaN	NaN	NaN	NaN	NaN	NaN
66	0.65	-481.65616	1612.41223	954.46765	-491.33792	1619.70215	1086.92493	-613.14868	1579.25146	950.06976	-617.5766	1585.65601	1080.95532	-655.78674	1418.62817	1013.63416	-693.47601	1104.1228	1018.6214	-537.05518	1338.8877	1016.12219	-495.02884	1173.94238	1009.82715	-712.54395	1242.59448	1112.31384	-578.39929	1374.28564	859.72821	-570.28046	1176.59045	793.40631	-549.54651	1054.60681	785.63074	-508.28128	930.95758	788.89819	-474.40842	817.07019	822.35022	-498.33795	817.91931	771.34302	-473.39676	737.29279	783.83624	-580.84875	1362.89502	1174.93152	-579.22937	1140.33667	1248.73743	-564.88068	1028.64648	1263.58533	-550.21185	892.48254	1267.37585	-523.02728	795.5827	1233.5199	-552.65759	792.06506	1278.45898	-533.67944	718.98578	1266.69788	-529.78137	937.83221	896.98267	-520.46985	945.02509	1136.41724	-690.71271	954.64893	953.59027	-683.43933	971.80023	1101.70398	-549.80054	634.25427	845.39014	-514.87396	457.99225	860.74017	-665.91162	332.40143	870.46185	-812.71429	188.74474	916.84802	-861.94849	191.6179	960.68164	-740.49231	58.05097	924.78662	-562.92639	649.9505	1173.77173	-538.92035	470.61319	1135.72864	-576.07935	283.07437	1135.58142	-590.22577	68.16843	1081.77344	-632.28174	36.04895	1029.80151	-446.66275	31.42848	1067.0885	NaN	NaN	NaN	-560.47394	1684.97266	996.7879	NaN	NaN	NaN	NaN	NaN	NaN	NaN	NaN	NaN	NaN	NaN	NaN	NaN	NaN	NaN
67	0.66	-471.88715	1612.38428	954.71326	-481.37332	1619.68188	1087.16223	-603.44446	1579.56409	950.55438	-607.6947	1585.95667	1081.41809	-646.39752	1418.97864	1014.12939	-684.5415	1104.49939	1019.271	-527.82117	1338.97974	1016.44031	-485.99161	1174.0321	1010.34869	-703.45209	1243.07581	1112.75232	-569.74231	1374.37439	859.91473	-563.52148	1176.25098	793.77588	-543.79181	1054.09973	785.90747	-504.67279	929.7724	788.88867	-472.81821	815.24512	821.73828	-496.68823	816.67889	770.69818	-473.56747	735.57117	782.80823	-571.41406	1363.19128	1175.30566	-566.82996	1140.85681	1249.27283	-550.70563	1029.33008	1263.8905	-534.61627	893.50897	1268.39368	-507.08899	796.72296	1234.48206	-535.82678	793.22015	1280.02454	-515.72388	720.61713	1268.73584	-520.70569	938.6936	898.16589	-511.74866	945.42426	1137.61658	-681.61444	955.14166	953.71472	-674.70135	971.96698	1101.93237	-534.70844	635.44495	845.99182	-496.26938	460.01044	861.68158	-644.51764	331.19385	870.85223	-789.11279	184.87894	916.42688	-839.27655	185.80986	959.5896	-711.43427	58.02283	925.54382	-555.68713	649.8252	1173.84497	-534.12823	470.23621	1135.70068	-573.17017	283.02457	1135.60754	-590.01111	68.35882	1081.60718	-632.19373	36.3474	1029.67993	-446.56491	31.37468	1067.04907	NaN	NaN	NaN	-551.0329	1685.75964	997.80518	NaN	NaN	NaN	NaN	NaN	NaN	NaN	NaN	NaN	NaN	NaN	NaN	NaN	NaN	NaN
68	0.67	-462.13248	1612.27808	954.93573	-471.41306	1619.60083	1087.34119	-593.71875	1579.8075	950.88953	-597.78577	1586.20251	1081.6886	-637.16479	1419.2616	1014.58795	-675.56085	1104.81458	1019.81586	-518.62872	1339.11938	1016.72845	-476.98425	1174.16736	1010.9931	-694.38873	1243.50476	1113.13196	-561.02045	1374.58911	860.17267	-556.72974	1176.17883	793.87091	-538.37946	1053.79712	786.17377	-501.17587	928.87689	788.82166	-471.79242	813.948	821.07782	-495.05627	815.79645	770.06226	-473.2464	734.25928	781.8573	-562.09869	1363.62524	1175.72388	-554.76318	1141.57092	1249.8656	-536.75549	1030.33691	1264.31628	-519.1369	894.80164	1269.29736	-491.02927	798.19391	1235.46741	-518.85083	794.60559	1281.43774	-497.62497	722.48096	1270.64795	-512.31146	939.05164	899.54926	-503.31204	945.55359	1138.54871	-672.44373	955.70325	953.87506	-665.89691	972.07452	1102.18323	-519.68396	636.58441	847.00256	-478.03995	462.14594	862.94073	-623.06592	329.61618	871.15265	-764.5517	180.10234	915.85858	-815.68689	178.7235	958.61707	-681.30652	57.25298	926.80322	-548.75616	649.63763	1173.97876	-529.31958	469.94763	1135.69275	-570.35895	283.03555	1135.56238	-589.59467	68.51329	1081.37817	-632.17957	36.62672	1029.59058	-446.46194	31.32869	1067.01599	NaN	NaN	NaN	-540.97235	1685.49597	997.94647	NaN	NaN	NaN	NaN	NaN	NaN	NaN	NaN	NaN	NaN	NaN	NaN	NaN	NaN	NaN
69	0.68	-452.35138	1612.13794	955.03473	-461.48508	1619.50806	1087.4856	-584.10785	1580.03271	951.14404	-587.97266	1586.53308	1082.01099	-627.91016	1419.46362	1015.04266	-666.66382	1105.04797	1020.1192	-509.43454	1339.25549	1017.05267	-468.02164	1174.31775	1011.56714	-685.25958	1243.9198	1113.54797	-552.30029	1374.91235	860.45056	-550.44214	1176.15137	794.2608	-533.20947	1053.69263	786.34161	-497.78912	928.26855	788.76074	-470.46091	812.67261	820.7226	-493.33545	815.17285	769.57465	-472.77374	733.32513	780.98181	-552.89972	1364.08337	1176.08496	-543.02747	1142.40881	1250.44629	-523.10175	1031.56384	1264.80774	-503.54205	896.25385	1270.1803	-474.79752	799.96448	1236.35718	-501.90024	796.19061	1282.78125	-479.39417	724.53961	1272.5498	-500.61725	941.09406	899.83997	-494.87711	945.53186	1139.38293	-663.24408	956.22534	953.93738	-657.0437	972.08813	1102.40723	-505.45557	638.23279	847.64905	-460.05743	464.29211	864.49664	-601.362	327.6012	871.745	-739.37036	174.28119	915.74414	-791.26837	170.76292	957.82587	-650.64569	56.26846	927.77295	-541.66797	649.26715	1173.80908	-524.60492	469.55515	1135.64404	-567.67938	283.01959	1135.41614	-589.32178	68.67867	1081.18933	-632.12531	36.9499	1029.52319	-446.35083	31.30326	1067.0061	NaN	NaN	NaN	NaN	NaN	NaN	NaN	NaN	NaN	NaN	NaN	NaN	NaN	NaN	NaN	NaN	NaN	NaN	NaN	NaN	NaN
